<svg width="75" height="73" viewBox="0 0 75 73" fill="none" xmlns="http://www.w3.org/2000/svg">
<g clip-path="url(#clip0_1003_436)">
<path d="M68.4 21.252V21.9853H69.1333V21.252H68.4ZM53.7333 21.252H53V21.9853H53.7333V21.252ZM74.2667 21.2667V22H75V21.2667H74.2667ZM64.7333 5.1304C64.7331 5.61172 64.6381 6.08829 64.4538 6.5329C64.2694 6.97751 63.9993 7.38145 63.6588 7.72166C63.3183 8.06187 62.9141 8.33168 62.4694 8.5157C62.0246 8.69971 61.548 8.79433 61.0667 8.79413V10.2608C63.9017 10.2608 66.2 7.964 66.2 5.1304H64.7333ZM61.0667 8.79413C60.5853 8.79433 60.1087 8.69971 59.6639 8.5157C59.2192 8.33168 58.815 8.06187 58.4745 7.72166C58.1341 7.38145 57.8639 6.97751 57.6796 6.5329C57.4952 6.08829 57.4002 5.61172 57.4 5.1304H55.9333C55.9335 5.80433 56.0665 6.47162 56.3245 7.09417C56.5826 7.71672 56.9608 8.28235 57.4375 8.75875C57.9141 9.23515 58.48 9.613 59.1027 9.87072C59.7254 10.1284 60.3927 10.261 61.0667 10.2608V8.79413ZM57.4 5.1304C57.4002 4.64908 57.4952 4.17251 57.6796 3.7279C57.8639 3.28329 58.1341 2.87935 58.4745 2.53914C58.815 2.19893 59.2192 1.92912 59.6639 1.7451C60.1087 1.56109 60.5853 1.46647 61.0667 1.46667V2.09663e-07C60.3927 -0.000192423 59.7254 0.132356 59.1027 0.390079C58.48 0.647801 57.9141 1.02565 57.4375 1.50205C56.9608 1.97845 56.5826 2.54408 56.3245 3.16663C56.0665 3.78918 55.9335 4.45647 55.9333 5.1304H57.4ZM61.0667 1.46667C62.0386 1.46667 62.9708 1.85257 63.6584 2.53957C64.3459 3.22657 64.7326 4.15845 64.7333 5.1304H66.2C66.1998 4.45647 66.0669 3.78918 65.8088 3.16663C65.5507 2.54408 65.1725 1.97845 64.6959 1.50205C64.2192 1.02565 63.6534 0.647801 63.0307 0.390079C62.408 0.132356 61.7406 -0.000192423 61.0667 2.09663e-07V1.46667ZM68.4 20.5187H53.7333V21.9853H68.4V20.5187ZM54.4667 21.252V18.326H53V21.252H54.4667ZM58.1333 14.6579H64V13.1912H58.1333V14.6579ZM67.6667 18.3245V21.252H69.1333V18.3245H67.6667ZM64 14.6579C64.9725 14.6579 65.9051 15.0442 66.5927 15.7318C67.2804 16.4194 67.6667 17.3521 67.6667 18.3245H69.1333C69.1333 16.9631 68.5925 15.6574 67.6298 14.6947C66.6671 13.732 65.3614 13.1912 64 13.1912V14.6579ZM54.4667 18.326C54.4667 17.3535 54.853 16.4194 55.5406 15.7318C56.2282 15.0442 57.1609 14.6579 58.1333 14.6579V13.1912C56.7719 13.1912 55.4662 13.732 54.5035 14.6947C53.5408 15.6574 53 16.9646 53 18.326H54.4667ZM73.5333 19.0667V21.2667H75V19.0667H73.5333ZM74.2667 20.5333H70.6V22H74.2667V20.5333ZM70.6 16.1333C71.378 16.1333 72.1241 16.4424 72.6742 16.9925C73.2243 17.5426 73.5333 18.2887 73.5333 19.0667H75C75 17.8997 74.5364 16.7806 73.7113 15.9554C72.8861 15.1302 71.767 14.6667 70.6 14.6667V16.1333ZM69.8667 11.7333C69.2832 11.7333 68.7236 11.5015 68.311 11.089C67.8985 10.6764 67.6667 10.1168 67.6667 9.53333H66.2C66.2 10.5058 66.5863 11.4384 67.2739 12.1261C67.9616 12.8137 68.8942 13.2 69.8667 13.2V11.7333ZM72.0667 9.53333C72.0667 10.1168 71.8349 10.6764 71.4223 11.089C71.0097 11.5015 70.4501 11.7333 69.8667 11.7333V13.2C70.8391 13.2 71.7718 12.8137 72.4594 12.1261C73.147 11.4384 73.5333 10.5058 73.5333 9.53333H72.0667ZM69.8667 7.33333C70.4501 7.33333 71.0097 7.56512 71.4223 7.9777C71.8349 8.39028 72.0667 8.94986 72.0667 9.53333H73.5333C73.5333 8.56087 73.147 7.62824 72.4594 6.94061C71.7718 6.25297 70.8391 5.86667 69.8667 5.86667V7.33333ZM69.8667 5.86667C68.8942 5.86667 67.9616 6.25297 67.2739 6.94061C66.5863 7.62824 66.2 8.56087 66.2 9.53333H67.6667C67.6667 8.94986 67.8985 8.39028 68.311 7.9777C68.7236 7.56512 69.2832 7.33333 69.8667 7.33333V5.86667Z" fill="#0002FF"/>
</g>
<g clip-path="url(#clip1_1003_436)">
<path d="M16.4 21.252V21.9853H17.1333V21.252H16.4ZM1.73333 21.252H1V21.9853H1.73333V21.252ZM22.2667 21.2667V22H23V21.2667H22.2667ZM12.7333 5.1304C12.7331 5.61172 12.6381 6.08829 12.4538 6.5329C12.2694 6.97751 11.9993 7.38145 11.6588 7.72166C11.3183 8.06187 10.9141 8.33168 10.4694 8.5157C10.0246 8.69971 9.54799 8.79433 9.06667 8.79413V10.2608C11.9017 10.2608 14.2 7.964 14.2 5.1304H12.7333ZM9.06667 8.79413C8.58535 8.79433 8.1087 8.69971 7.66394 8.5157C7.21919 8.33168 6.81503 8.06187 6.47455 7.72166C6.13407 7.38145 5.86393 6.97751 5.67956 6.5329C5.49519 6.08829 5.40019 5.61172 5.4 5.1304H3.93333C3.93353 5.80433 4.06646 6.47162 4.32453 7.09417C4.58261 7.71672 4.96079 8.28235 5.43746 8.75875C5.91413 9.23515 6.47997 9.613 7.10267 9.87072C7.72538 10.1284 8.39274 10.261 9.06667 10.2608V8.79413ZM5.4 5.1304C5.40019 4.64908 5.49519 4.17251 5.67956 3.7279C5.86393 3.28329 6.13407 2.87935 6.47455 2.53914C6.81503 2.19893 7.21919 1.92912 7.66394 1.7451C8.1087 1.56109 8.58535 1.46647 9.06667 1.46667V2.09663e-07C8.39274 -0.000192423 7.72538 0.132356 7.10267 0.390079C6.47997 0.647801 5.91413 1.02565 5.43746 1.50205C4.96079 1.97845 4.58261 2.54408 4.32453 3.16663C4.06646 3.78918 3.93353 4.45647 3.93333 5.1304H5.4ZM9.06667 1.46667C10.0386 1.46667 10.9708 1.85257 11.6584 2.53957C12.3459 3.22657 12.7326 4.15845 12.7333 5.1304H14.2C14.1998 4.45647 14.0669 3.78918 13.8088 3.16663C13.5507 2.54408 13.1725 1.97845 12.6959 1.50205C12.2192 1.02565 11.6534 0.647801 11.0307 0.390079C10.408 0.132356 9.74059 -0.000192423 9.06667 2.09663e-07V1.46667ZM16.4 20.5187H1.73333V21.9853H16.4V20.5187ZM2.46667 21.252V18.326H1V21.252H2.46667ZM6.13333 14.6579H12V13.1912H6.13333V14.6579ZM15.6667 18.3245V21.252H17.1333V18.3245H15.6667ZM12 14.6579C12.9725 14.6579 13.9051 15.0442 14.5927 15.7318C15.2804 16.4194 15.6667 17.3521 15.6667 18.3245H17.1333C17.1333 16.9631 16.5925 15.6574 15.6298 14.6947C14.6671 13.732 13.3614 13.1912 12 13.1912V14.6579ZM2.46667 18.326C2.46667 17.3535 2.85298 16.4194 3.54061 15.7318C4.22824 15.0442 5.16087 14.6579 6.13333 14.6579V13.1912C4.77189 13.1912 3.46621 13.732 2.50352 14.6947C1.54083 15.6574 1 16.9646 1 18.326H2.46667ZM21.5333 19.0667V21.2667H23V19.0667H21.5333ZM22.2667 20.5333H18.6V22H22.2667V20.5333ZM18.6 16.1333C19.378 16.1333 20.1241 16.4424 20.6742 16.9925C21.2243 17.5426 21.5333 18.2887 21.5333 19.0667H23C23 17.8997 22.5364 16.7806 21.7113 15.9554C20.8861 15.1302 19.767 14.6667 18.6 14.6667V16.1333ZM17.8667 11.7333C17.2832 11.7333 16.7236 11.5015 16.311 11.089C15.8985 10.6764 15.6667 10.1168 15.6667 9.53333H14.2C14.2 10.5058 14.5863 11.4384 15.2739 12.1261C15.9616 12.8137 16.8942 13.2 17.8667 13.2V11.7333ZM20.0667 9.53333C20.0667 10.1168 19.8349 10.6764 19.4223 11.089C19.0097 11.5015 18.4501 11.7333 17.8667 11.7333V13.2C18.8391 13.2 19.7718 12.8137 20.4594 12.1261C21.147 11.4384 21.5333 10.5058 21.5333 9.53333H20.0667ZM17.8667 7.33333C18.4501 7.33333 19.0097 7.56512 19.4223 7.9777C19.8349 8.39028 20.0667 8.94986 20.0667 9.53333H21.5333C21.5333 8.56087 21.147 7.62824 20.4594 6.94061C19.7718 6.25298 18.8391 5.86667 17.8667 5.86667V7.33333ZM17.8667 5.86667C16.8942 5.86667 15.9616 6.25298 15.2739 6.94061C14.5863 7.62824 14.2 8.56087 14.2 9.53333H15.6667C15.6667 8.94986 15.8985 8.39028 16.311 7.9777C16.7236 7.56512 17.2832 7.33333 17.8667 7.33333V5.86667Z" fill="#474747"/>
</g>
<path d="M18 51H6C4.89543 51 4 51.8954 4 53V69C4 70.1046 4.89543 71 6 71H18C19.1046 71 20 70.1046 20 69V53C20 51.8954 19.1046 51 18 51Z" stroke="#474747" stroke-linecap="round" stroke-linejoin="round"/>
<path d="M9 71V67H15V71M8 55H8.01M16 55H16.01M12 55H12.01M12 59H12.01M12 63H12.01M16 59H16.01M16 63H16.01M8 59H8.01M8 63H8.01" stroke="#474747" stroke-linecap="round" stroke-linejoin="round"/>
<path d="M68 51H56C54.8954 51 54 51.8954 54 53V69C54 70.1046 54.8954 71 56 71H68C69.1046 71 70 70.1046 70 69V53C70 51.8954 69.1046 51 68 51Z" stroke="#0002FF" stroke-linecap="round" stroke-linejoin="round"/>
<path d="M59 71V67H65V71M58 55H58.01M66 55H66.01M62 55H62.01M62 59H62.01M62 63H62.01M66 59H66.01M66 63H66.01M58 59H58.01M58 63H58.01" stroke="#0002FF" stroke-linecap="round" stroke-linejoin="round"/>
<defs>
<clipPath id="clip0_1003_436">
<rect width="22" height="22" fill="white" transform="translate(53)"/>
</clipPath>
<clipPath id="clip1_1003_436">
<rect width="22" height="22" fill="white" transform="translate(1)"/>
</clipPath>
</defs>
</svg>
