<?xml version="1.0" encoding="utf-8"?>
<!-- Generator: Adobe Illustrator 19.2.1, SVG Export Plug-In . SVG Version: 6.00 Build 0)  -->
<svg version="1.1" id="Layer_1" xmlns="http://www.w3.org/2000/svg" xmlns:xlink="http://www.w3.org/1999/xlink" x="0px" y="0px"
	 viewBox="0 0 79 74" style="enable-background:new 0 0 79 74;" xml:space="preserve">
<style type="text/css">
	.st0{fill:#7FD8FF;}
	.st1{fill:none;stroke:#003A52;stroke-width:2;stroke-linecap:round;stroke-linejoin:round;}
</style>
<g id="Main-Site">
	<g id="About-2" transform="translate(-1085.000000, -1776.000000)">
		<g id="_x33_" transform="translate(107.000000, 1460.000000)">
			<g id="Group" transform="translate(16.000000, 300.000000)">
				<g id="Group-11" transform="translate(963.000000, 16.000000)">
					<path id="Rectangle" class="st0" d="M50,0h18c5.5,0,10,4.5,10,10v18c0,5.5-4.5,10-10,10H50c-5.5,0-10-4.5-10-10V10
						C40,4.5,44.5,0,50,0z"/>
					<path id="stroke" class="st1" d="M10,72V52 M19,72V41 M29,72V52 M38,71V50 M48,72V32 M57,72V48 M2,51.7v16.5
						C2,70.9,4.1,73,6.7,73h54.5c2.6,0,4.7-2.1,4.7-4.7V47 M69,47h-2.4c-7.1,0-9.5-21-19-21S37.4,47,30.3,47c0,0-1.2,0,0,0
						c-7.1,0-4.1-11.7-11.2-11.7S14.3,47,4.8,47H0 M2,47V13.8C2,11.1,4.1,9,6.7,9h54.5c2.6,0,4.7,2.1,4.7,4.8v28.5"/>
				</g>
			</g>
		</g>
	</g>
</g>
</svg>
