<?xml version="1.0" encoding="utf-8"?>
<!-- Generator: Adobe Illustrator 19.2.1, SVG Export Plug-In . SVG Version: 6.00 Build 0)  -->
<svg version="1.1" id="Layer_1" xmlns="http://www.w3.org/2000/svg" xmlns:xlink="http://www.w3.org/1999/xlink" x="0px" y="0px"
	 viewBox="0 0 77 89" style="enable-background:new 0 0 77 89;" xml:space="preserve">
<style type="text/css">
	.st0{fill:#7FD8FF;}
	.st1{fill:none;stroke:#003A52;stroke-width:2;stroke-linecap:round;stroke-linejoin:round;}
</style>
<g transform="translate(1 1)">
	<path class="st0" d="M38,6h6c8.8,0,16,7.2,16,16v6c0,8.8-7.2,16-16,16h-6c-8.8,0-16-7.2-16-16v-6C22,13.2,29.2,6,38,6z"/>
	<path class="st1" d="M10.2,38.3l-5.2,3L10.2,38.3z M10.2,6.8L5,3.8L10.2,6.8z M70,41.3l-5.2-3L70,41.3z M70,3.8l-5.2,3L70,3.8z
		 M75,22.5h-6H75z M6,22.5H0H6z M52.2,15l1.2,3 M48.1,9.8c-2.5-2.1-5.5-3.4-8.8-3.7 M40.5,45L45,24c0,0-4.5,3-7.5,3S30,24,30,24
		l4.5,21 M30,63h15H30z M28.5,57h18H28.5z M60,22.5C60,10.1,49.9,0,37.5,0C25.1,0,15,10.1,15,22.5c0,9,9,16.1,10.5,22.5l1.5,6h21
		l1.5-6C51,38.6,60,31.5,60,22.5z M48,84c0,0,4.5,0,7.5-3s3-7.5,3-7.5V69H54c0,0-4.5,0-7.5,3s-3,7.5-3,7.5V84H48z M31.5,84v-4.5
		c0,0,0-4.5-3-7.5S21,69,21,69h-4.5v4.5c0,0,0,4.5,3,7.5s7.5,3,7.5,3H31.5z M37.5,87V69V87z"/>
</g>
</svg>
