<?xml version="1.0" encoding="utf-8"?>
<!-- Generator: Adobe Illustrator 19.2.1, SVG Export Plug-In . SVG Version: 6.00 Build 0)  -->
<svg version="1.1" id="Layer_1" xmlns="http://www.w3.org/2000/svg" xmlns:xlink="http://www.w3.org/1999/xlink" x="0px" y="0px"
	 viewBox="0 0 71 75" style="enable-background:new 0 0 71 75;" xml:space="preserve">
<style type="text/css">
	.st0{fill:#7FD8FF;}
	.st1{fill:none;stroke:#003A52;stroke-width:2;stroke-linecap:round;stroke-linejoin:round;}
</style>
<g id="Main-Site">
	<g id="About-2" transform="translate(-762.000000, -1773.000000)">
		<g id="_x33_" transform="translate(107.000000, 1460.000000)">
			<g id="Group" transform="translate(16.000000, 300.000000)">
				<g id="Group-8" transform="translate(640.000000, 13.000000)">
					<circle id="Oval" class="st0" cx="20" cy="17" r="17"/>
					<path id="stroke" class="st1" d="M37,44.4l6.9,6.9L37,44.4L37,44.4z M48.9,51.2l14-14L48.9,51.2L48.9,51.2z M6.6,68.6
						l24.8-24.8L6.6,68.6L6.6,68.6z M69,34.7c0-2-1.6-3.6-3.6-3.6c-2,0-3.6,1.6-3.6,3.6c0,2,1.6,3.6,3.6,3.6
						C67.4,38.3,69,36.7,69,34.7L69,34.7L69,34.7z M7.1,70.4c0-2-1.6-3.6-3.6-3.6S0,68.5,0,70.4c0,2,1.6,3.6,3.6,3.6
						S7.1,72.4,7.1,70.4L7.1,70.4L7.1,70.4z M50,53.8c0-2-1.6-3.6-3.6-3.6c-2,0-3.6,1.6-3.6,3.6c0,2,1.6,3.6,3.6,3.6
						C48.4,57.3,50,55.7,50,53.8L50,53.8L50,53.8z M38.1,41.9c0-2-1.6-3.6-3.6-3.6s-3.6,1.6-3.6,3.6s1.6,3.6,3.6,3.6
						S38.1,43.9,38.1,41.9L38.1,41.9L38.1,41.9z M15.5,27.6v1.2V27.6L15.5,27.6z M15.5,12.1v1.2V12.1L15.5,12.1z M19,16.9
						c0-2-1.6-3.6-3.6-3.6s-3.6,1.6-3.6,3.6s1.6,3.6,3.6,3.6S19,22.1,19,24s-1.6,3.6-3.6,3.6S11.9,26,11.9,24 M15.5,35.9
						C6.9,35.9,0,29,0,20.5C0,11.9,6.9,5,15.5,5s15.5,6.9,15.5,15.5C30.9,29,24,35.9,15.5,35.9L15.5,35.9L15.5,35.9z"/>
				</g>
			</g>
		</g>
	</g>
</g>
</svg>
