<?xml version="1.0" encoding="utf-8"?>
<!-- Generator: Adobe Illustrator 19.2.1, SVG Export Plug-In . SVG Version: 6.00 Build 0)  -->
<svg version="1.1" id="Layer_1" xmlns="http://www.w3.org/2000/svg" xmlns:xlink="http://www.w3.org/1999/xlink" x="0px" y="0px"
	 viewBox="0 0 74 74" style="enable-background:new 0 0 74 74;" xml:space="preserve">
<style type="text/css">
	.st0{fill:#7FD8FF;}
	.st1{fill:none;stroke:#003A52;stroke-width:2;stroke-linecap:round;stroke-linejoin:round;}
</style>
<g id="Main-Site">
	<g id="About-2" transform="translate(-436.000000, -1767.000000)">
		<g id="_x33_" transform="translate(107.000000, 1460.000000)">
			<g id="Group" transform="translate(16.000000, 300.000000)">
				<g id="Group-6" transform="translate(314.000000, 8.000000)">
					<path id="Oval" class="st0" d="M41.8,28.7c4.4,0,9.2-7.5,9.2-12.7S46.2,0,41.8,0S32,10.8,32,16S37.4,28.7,41.8,28.7z"/>
					<path id="stroke" class="st1" d="M31,38.5c0,0,0-3.7-2.5-6.2s-6.2-2.5-6.2-2.5h-3.7v3.7c0,0,0,3.7,2.5,6.2
						c2.5,2.5,6.2,2.5,6.2,2.5H31V38.5L31,38.5L31,38.5L31,38.5L31,38.5L31,38.5L31,38.5L31,38.5z M44.7,42.2c0,0,3.7,0,6.2-2.5
						c2.5-2.5,2.5-6.2,2.5-6.2v-3.7h-3.7c0,0-3.7,0-6.2,2.5S41,38.5,41,38.5v3.7H44.7L44.7,42.2L44.7,42.2L44.7,42.2L44.7,42.2
						L44.7,42.2L44.7,42.2L44.7,42.2z M41,5l-5-5l-5,5c0,0-3.7,3.7-3.7,8.7s3.7,8.7,3.7,8.7l5,5l5-5c0,0,3.7-3.7,3.7-8.7S41,5,41,5
						L41,5L41,5L41,5L41,5L41,5L41,5L41,5z M36,7.4v44.7V7.4L36,7.4L36,7.4L36,7.4L36,7.4L36,7.4L36,7.4z M64.6,72v-5H44.7v5
						 M57.1,52.1l6.2-6.2c1.5-1.5,1.6-3.7,0.2-5.1c-1.5-1.5-3.7-1.3-5.1,0.2l-8.7,8.7c0,0-2.5,2.2-2.5,6.2V67 M58.3,62.1l11.2-11.2
						c0,0,2.5-2.1,2.5-6.2V26.1c0-2.1-1.7-3.7-3.7-3.7c-2.1,0-3.7,1.7-3.7,3.7v9.8 M27.3,72v-5H7.4v5 M24.8,67V55.9
						c0-4.1-2.5-6.2-2.5-6.2L13.7,41c-1.5-1.5-3.7-1.6-5.1-0.2c-1.5,1.5-1.3,3.7,0.2,5.1l6.2,6.2 M13.7,62.1L2.5,50.9
						c0,0-2.5-2.1-2.5-6.2V26.1c0-2.1,1.7-3.7,3.7-3.7s3.7,1.7,3.7,3.7v9.8"/>
				</g>
			</g>
		</g>
	</g>
</g>
</svg>
