<?xml version="1.0" encoding="utf-8"?>
<!-- Generator: Adobe Illustrator 19.2.1, SVG Export Plug-In . SVG Version: 6.00 Build 0)  -->
<svg version="1.1" id="Capa_1" xmlns="http://www.w3.org/2000/svg" xmlns:xlink="http://www.w3.org/1999/xlink" x="0px" y="0px"
	 viewBox="-49 141 512 512" style="enable-background:new -49 141 512 512;" xml:space="preserve">
<g>
	<path d="M462.5,335c-0.1-0.5-0.3-1-0.5-1.5c-0.2-0.5-0.5-0.9-0.9-1.3c-0.3-0.5-0.7-0.9-1.1-1.3c-0.1-0.1-0.2-0.3-0.3-0.4
		l-82.1-63.7v-66.1c0-14.1-11.5-25.6-25.6-25.6h-92.5l-37-28.7c-9.1-7.1-22-7.1-31.1,0l-37,28.7H61.9c-14.1,0-25.6,11.5-25.6,25.6
		v66.1l-82,63.7c-0.1,0.1-0.2,0.3-0.3,0.4c-0.4,0.4-0.8,0.8-1.1,1.3c-0.3,0.4-0.6,0.8-0.9,1.3c-0.2,0.5-0.4,1-0.5,1.5
		c-0.2,0.6-0.3,1.1-0.3,1.7c0,0.2-0.1,0.3-0.1,0.5v290.2c0,5.4,1.8,10.7,5,15.1c0.1,0.1,0.1,0.2,0.1,0.2c0.1,0.1,0.2,0.1,0.3,0.2
		c4.8,6.3,12.2,10,20.2,10.1h460.8c8,0,15.4-3.8,20.2-10.1c0.1-0.1,0.2-0.1,0.2-0.2c0.1-0.1,0.1-0.2,0.1-0.2c3.2-4.4,5-9.6,5-15.1
		V337.3c0-0.2-0.1-0.3-0.1-0.5C462.8,336.2,462.7,335.6,462.5,335z M201.9,159.9c3-2.4,7.2-2.4,10.2,0l19.7,15.3h-49.5L201.9,159.9z
		 M44.9,362.9c4.7,0,8.5-3.8,8.5-8.5V200.7c0-4.7,3.8-8.5,8.5-8.5h290.1c4.7,0,8.5,3.8,8.5,8.5v153.6c0,4.7,3.8,8.5,8.5,8.5
		s8.5-3.8,8.5-8.5v-65.9l60,46.7L295.4,445.6c-2.4,1.9-3.7,4.9-3.3,7.9c0.4,3,2.4,5.6,5.3,6.8c2.8,1.1,6.1,0.7,8.5-1.2l140.1-108.8
		v272.4L222.6,449.1c-9.1-7.1-22-7.1-31.1,0L-31.9,622.6V350.3l139.8,108.6c3.7,2.9,9.1,2.2,12-1.5c2.9-3.7,2.2-9.1-1.5-12
		L-23.7,335l60-46.7v65.9C36.3,359,40.2,362.9,44.9,362.9z M435.2,635.9H-21.2l223.1-173.3c3-2.4,7.2-2.4,10.2,0L435.2,635.9z"/>
	<path d="M207,414.1c4.7,0,8.5-3.8,8.5-8.5s-3.8-8.5-8.5-8.5c-47.1,0-85.3-38.2-85.3-85.3s38.2-85.3,85.3-85.3s85.3,38.2,85.3,85.3
		v34.1c0,9.4-7.6,17.1-17.1,17.1c-9.4,0-17.1-7.6-17.1-17.1v-34.1c0-4.7-3.8-8.5-8.5-8.5c-4.7,0-8.5,3.8-8.5,8.5
		c0,18.9-15.3,34.1-34.1,34.1s-34.1-15.3-34.1-34.1s15.3-34.1,34.1-34.1c4.7,0,8.5-3.8,8.5-8.5s-3.8-8.5-8.5-8.5
		c-22.9-0.1-43.1,15.1-49.4,37.2c-6.3,22,2.8,45.6,22.3,57.6s44.6,9.6,61.5-5.8c1.9,18,17.5,31.5,35.7,30.5s32.3-16,32.2-34.1v-34.1
		c0-56.6-45.8-102.4-102.4-102.4s-102.4,45.8-102.4,102.4S150.4,414.1,207,414.1z"/>
</g>
</svg>
