<?xml version="1.0" encoding="utf-8"?>
<!-- Generator: Adobe Illustrator 19.2.1, SVG Export Plug-In . SVG Version: 6.00 Build 0)  -->
<svg version="1.1" id="Isolation_Mode" xmlns="http://www.w3.org/2000/svg" xmlns:xlink="http://www.w3.org/1999/xlink" x="0px"
	 y="0px" viewBox="0 0 262.5 292.6" style="enable-background:new 0 0 262.5 292.6;" xml:space="preserve">
<style type="text/css">
	.st0{fill:#F49D56;}
	.st1{fill:#B1ECFA;}
	.st2{fill:#282828;}
	.st3{fill:#3A3A3A;}
	.st4{fill:#FFBA31;}
	.st5{fill:#201C6F;}
	.st6{fill:#1B66B3;}
	.st7{fill:#3F3F3F;}
	.st8{fill:#E2340C;}
	.st9{fill:#3C3C99;}
</style>
<g>
	<g>
		<path class="st0" d="M259.9,94l-10.6,0.9c-1.8,0.2-1.6,2.9,0.2,2.8l10.6-0.9C262,96.6,261.8,93.8,259.9,94z"/>
		<path class="st0" d="M260.5,100.8l-10.7,0c-1.8,0-1.9,2.8,0,2.8l10.7,0C262.3,103.6,262.3,100.9,260.5,100.8z"/>
		<path class="st0" d="M258,104l-8.9-0.1c-1.5,0-1.6,2.3,0,2.3l8.9,0.1C259.5,106.3,259.5,104,258,104z"/>
		<path class="st0" d="M246.4,94.2c0.6,0.5,4.5,0.5,4.5,0.5c0.2,3.3,0.2,8.4-1.2,11.4c0,0-10.5,1.2-11-1.3c-1.6,0-5.3,0-6.3,0
			l0.7-9.3c2.2-0.2,4.2-0.3,5.9-0.6c1.6-4.2,7.2-4.6,10.4-6.2c1.6-0.8,2.8-1.5,2.8-1.5s1.7,1.3-0.2,2.9
			C250.1,91.9,245.3,93.2,246.4,94.2z"/>
		<path class="st0" d="M261,97.4l-10.7,0.5c-1.8,0.1-1.7,2.9,0.1,2.8l10.7-0.5C263,100.1,262.9,97.3,261,97.4z"/>
	</g>
	<polygon class="st1" points="182.3,62.5 199.5,98.7 236.9,91.9 239.7,108.4 188.8,121.1 172,90 	"/>
	<path class="st2" d="M63,144.9l-20.9,16c-1.4,1-3.3,0.8-4.3-0.6L0.6,111.7c-1-1.4-0.8-3.3,0.6-4.3l20.9-16c-1.4,1-1.6,3-0.6,4.3
		l37.2,48.6C59.7,145.7,61.7,146,63,144.9z"/>
	<path class="st3" d="M79.1,132.7l-16,12.2c-1.4,1-3.3,0.8-4.3-0.6L21.6,95.7c-1-1.3-0.8-3.3,0.6-4.3l16-12.2c1.3-1,3.3-0.8,4.3,0.6
		l37.2,48.6C80.7,129.7,80.4,131.6,79.1,132.7z"/>
	<path class="st4" d="M40.9,128.3c-0.4,0.3-0.9,0.2-1.2-0.2l-7.5-9.8c-0.3-0.4-0.2-0.9,0.2-1.2l7-5.3c0.4-0.3,0.9-0.2,1.2,0.2
		l7.5,9.8c0.3,0.4,0.2,0.9-0.2,1.2L40.9,128.3z"/>
	<path class="st3" d="M72,103.4l-7.4-9.7c-1.5-2-4.4-2.4-6.3-0.8L51,98.4c-2,1.5-2.4,4.4-0.8,6.3l7.4,9.7c1.5,2,4.4,2.4,6.3,0.8
		l7.2-5.5C73.1,108.2,73.5,105.4,72,103.4z M61.8,112.5c-0.5,0.4-1.1,0.3-1.5-0.2l-7.4-9.7c-0.4-0.5-0.3-1.1,0.2-1.5l7.2-5.5
		c0.5-0.3,1.1-0.3,1.5,0.2l7.4,9.7c0.4,0.5,0.3,1.1-0.2,1.5L61.8,112.5z"/>
	<polygon class="st0" points="100.6,69.6 72.5,86.5 76.5,95.8 113.2,76.3 	"/>
	<path class="st5" d="M109.2,138.9c0,0,28.4-70.7,37.8-80.2l23.7-11.4l16.4,14.5c0,0-4.6,24.4-8.1,31.5l-26.8,55.5L109.2,138.9z"/>
	<path class="st0" d="M85.3,90.9l-8.9,4.9c6.2,6.5-1.6,9.9-3,10.7c0,0-4.5-1.9-2.2-3.2l-3-2.6l-4.4-9.3l16.7-9.2L85.3,90.9z"/>
	<g>
		<path class="st0" d="M64.6,102.6l3.6-2c3.1-1.7,5.3,2.9,2.4,4.4l-3.6,2C64.2,108.6,61.5,104.3,64.6,102.6z"/>
		<path class="st0" d="M62.9,99.6l3.6-2c3.1-1.7,5.3,2.9,2.4,4.4l-3.6,2C62.5,105.6,59.8,101.3,62.9,99.6z"/>
		<path class="st0" d="M61.3,96.6l3.6-2c3.1-1.7,5.3,2.9,2.4,4.4l-3.6,2C60.9,102.6,58.2,98.3,61.3,96.6z"/>
		<path class="st0" d="M59.6,93.6l3.6-2c3.1-1.7,5.3,2.9,2.4,4.4l-3.6,2C59.2,99.6,56.5,95.3,59.6,93.6z"/>
	</g>
	<path class="st0" d="M168.7,22.7c0.1,8,4.8,14.4,4.7,16.7c0,1.4-2.7,7.8-2.7,7.8l15.2,20l5.1-14.7c0,0,3.5,3,6.6,4.1
		c0,0,5.3,2.5,7.2-0.3c2.5-8.1,3.2-9,5.2-13.4c4.4-0.6,5.6-3.1,1.6-8.4C224.9-1,168.5-9.7,168.7,22.7z"/>
	<path class="st6" d="M107.9,159c0.8,1.8-9.3,49.2-9.3,49.2l-73.3,39.5l5.3,17.1c0,0,95-37.2,101.6-44.5l10.9-51.6L107.9,159z"/>
	<path class="st1" d="M90.1,73.8l22.3-16c0,0,15.8-2.2,31-3.3c40.4-2.9,32.8,22.2,25.9,22.3l-51.9,0.7L97.8,87.5L90.1,73.8z"/>
	<path class="st3" d="M216,24.9l-20.4-4.3c0,0-7.5,11.7-22.2,18.9c0,0-10-13.4-1.4-28.7c0,0,7.2-13.9,25.6-10.2l-2.1,2.5
		c0,0-0.5-3.9,10.8,1.4C206.3,4.6,218.2,11,216,24.9z"/>
	<path class="st0" d="M188.5,29.3c0,0-1.3-4.9-5-5c-5-0.1-1.1,12.1,1.5,12.2L188.5,29.3z"/>
	<polygon class="st1" points="178.7,57.8 182.5,82.8 185.9,67.3 	"/>
	<path class="st7" d="M202.5,252.9c0,0-0.2,7.6,5.3,13.1l36.4-10.6c0,0,0.7-8.4-8.5-6.4l-16.6,1.5l-4.5-1.9L202.5,252.9z"/>
	<path class="st7" d="M26.1,250.3c0,0-8.5,0.7-13.9,6.3l11.9,36c0,0,8.4,0.3,6.1-8.8l-2-16.5l1.8-4.6L26.1,250.3z"/>
	<polygon class="st8" points="182.3,62.5 186.7,65 185.5,70.9 	"/>
	<polygon class="st8" points="184.1,67.2 172.9,101.3 175.9,110.6 180.7,106.5 185.5,70.9 	"/>
	<path class="st9" d="M109.2,138.9c-4.3,8.7-3.8,20.2,3.3,27.2c10.4,10.3,77.8,3.9,77.8,3.9c0,0,4.2,64.2,9.6,85.1l20.2-6.6
		c0,0-3.3-101.1-10.9-105.9L109.2,138.9z"/>
</g>
</svg>
