<?xml version="1.0" encoding="utf-8"?>
<!-- Generator: Adobe Illustrator 19.2.1, SVG Export Plug-In . SVG Version: 6.00 Build 0)  -->
<svg version="1.1" id="Capa_1" xmlns="http://www.w3.org/2000/svg" xmlns:xlink="http://www.w3.org/1999/xlink" x="0px" y="0px"
	 viewBox="-49 141 512 512" style="enable-background:new -49 141 512 512;" xml:space="preserve">
<g transform="translate(-1)">
	<path d="M-41.5,247.6c-6.5,10.9-8.2,24-4.9,36.3l9.8,37.4c3,11.2,13.3,19,24.9,18.9c1.7,0,3.4-0.2,5-0.5l51.7-9.9l39.8-8.7
		c13.1-2.4,22.1-14.5,20.6-27.7l-4.9-37.2c-0.6-4.6,10-9.8,19.9-11.3c57.4-9.3,116-9.4,173.4-0.5c15.8,2.7,19.3,5.3,20,6.2
		c1.6,3.9,1.8,8.3,0.7,12.3l-3.5,24.7c-2,8-0.6,16.5,3.8,23.4c6.2,6.5,14.5,10.6,23.5,11.4c6,1.1,10.6,2.3,15.2,3.4
		c4.9,1.2,9.8,2.4,16.1,3.6l46.3,8.9c8,2.4,16.7,1.9,24.4-1.4c8.1-5.2,13.4-13.9,14.3-23.5l0.3-1.2c0.9-3.9,2.1-7.9,3.3-11.8
		c3.4-9.4,5.2-19.2,5.4-29.2c-1.4-17.6-9.5-33.9-22.6-45.6c-59.1-58-161.3-64.7-233-64.7C44.4,161-18,208.1-41.5,247.6z M208,178.1
		c68.7,0,166.4,6.2,221,59.8c9.9,8.7,16.2,20.8,17.4,33.9c-0.3,8.1-1.9,16.2-4.7,23.8c-1.3,4.3-2.6,8.6-3.6,12.9l-0.3,1.3
		c-1.4,6.3-2.6,10.6-5.5,12.2c-4.3,1.2-8.9,1.1-13.2-0.2l-46.2-8.8c-6-1.1-10.6-2.3-15.2-3.4c-4.9-1.2-9.8-2.4-16.1-3.6
		c-4.1-0.8-10.9-2.1-13.1-5c-1.4-3.4-1.6-7.2-0.5-10.7l3.5-24.7c2-8.3,0.8-17.1-3.6-24.5c-5.5-7.9-18.2-11-31.1-13.2
		c-59.3-9.3-119.7-9.2-178.9,0.4c-18.7,2.8-36.5,13.3-34.3,30.4l4.9,37.2c0.4,4.3-2.8,8.2-7.1,8.8l-39.8,8.6L-9.9,323
		c-4.5,1-8.9-1.6-10.2-6l-9.7-37.4c-2.2-7.8-1.1-16.2,3.1-23.3C-5.6,220.6,52.4,178.1,208,178.1z"/>
	<path d="M462.2,529.9c-0.8-2.1-1.9-4.1-3.2-6L350.5,376.8c-6.4-8.7-16.6-13.9-27.5-13.9h-22.2l-7.5-60.4
		c-0.3-9.2-7.9-16.4-17.1-16.4h-25.6c-9.4,0-17.1,7.6-17.1,17.1v68.3c0,4.7,3.8,8.5,8.5,8.5s8.5-3.8,8.5-8.5v-68.3h25.6
		c0,0.4,0,0.7,0.1,1.1l8.5,68.3c0.5,4.3,4.2,7.5,8.5,7.5h29.7c5.4,0,10.5,2.6,13.7,6.9L438.6,525h-68.4c-4.7,0-8.5,3.8-8.5,8.5
		c0,4.7,3.8,8.5,8.5,8.5h76.8v68.3c0,14.1-11.5,25.6-25.6,25.6H-5.3c-14.1,0-25.6-11.5-25.6-25.6v-68.3h358.4c4.7,0,8.5-3.8,8.5-8.5
		c0-4.7-3.8-8.5-8.5-8.5h-350L79.2,386.9c3.2-4.4,8.3-6.9,13.7-6.9h29.7c4.3,0,7.9-3.2,8.5-7.5l8.5-68.3c0-0.4,0.1-0.7,0.1-1.1h25.6
		v68.3c0,4.7,3.8,8.5,8.5,8.5H208c4.7,0,8.5-3.8,8.5-8.5c0-4.7-3.8-8.5-8.5-8.5h-25.6v-59.7c0-9.4-7.6-17.1-17.1-17.1h-25.6
		c-9.2,0-16.7,7.3-17.1,16.4l-7.5,60.4H92.9c-10.8,0-21,5.2-27.5,13.9L-43,524c-1.3,1.8-2.4,3.8-3.2,6c-0.1,0.2-0.2,0.4-0.3,0.6
		c-1,2.8-1.5,5.7-1.5,8.6v71.2c0,23.6,19.1,42.6,42.7,42.7h426.7c23.6,0,42.6-19.1,42.7-42.7v-71.2c0-2.9-0.5-5.8-1.5-8.6
		C462.4,530.3,462.3,530.1,462.2,529.9z"/>
	<path d="M151.8,426.8c7.9-4.2,16.3-7.3,25-9.2c20.6-4.6,42-4.6,62.6,0c3,0.7,6.1-0.2,8.2-2.5s2.8-5.4,1.9-8.3
		c-0.9-2.9-3.3-5.1-6.3-5.8c-23.1-5.2-47.2-5.2-70.3,0c-10.2,2.3-20.1,5.9-29.3,10.9c-8.1,4.2-15.2,10.1-20.9,17.2
		c-11.3,13.6-11.3,33.3,0,46.9c5.7,7.1,12.9,13,20.9,17.2c9.2,4.9,19.1,8.6,29.3,10.9c23.1,5.2,47.2,5.2,70.3,0
		c10.2-2.3,20.1-5.9,29.3-10.9c8.1-4.2,15.2-10.1,20.9-17.2c11.3-13.6,11.3-33.3,0-46.9c-1.8-2.5-4.9-3.8-7.9-3.4
		c-3.1,0.4-5.7,2.4-6.8,5.3c-1.2,2.9-0.7,6.1,1.3,8.5c6.6,7.5,6.6,18.7,0,26.1c-4.3,5.2-9.6,9.5-15.6,12.6c-7.9,4.2-16.3,7.3-25,9.2
		c-20.6,4.6-42,4.6-62.6,0c-8.7-1.9-17.1-5-24.9-9.2c-6-3.1-11.3-7.4-15.6-12.6c-6.6-7.5-6.6-18.7,0-26.1
		C140.4,434.2,145.8,429.9,151.8,426.8z"/>
</g>
</svg>
