<?xml version="1.0" encoding="utf-8"?>
<!-- Generator: Adobe Illustrator 19.2.1, SVG Export Plug-In . SVG Version: 6.00 Build 0)  -->
<svg version="1.1" id="Layer_1" xmlns="http://www.w3.org/2000/svg" xmlns:xlink="http://www.w3.org/1999/xlink" x="0px" y="0px"
	 viewBox="0 0 547 133" style="enable-background:new 0 0 547 133;" xml:space="preserve">
<style type="text/css">
	.st0{fill:#BCBCBC;}
</style>
<g>
	<g transform="translate(-3 1)">
		<path id="a" class="st0" d="M526.6,114.8l-1-0.2L526.6,114.8z M42.6,105.2l0.1-1L42.6,105.2z M10.9,37.1l-1,0.3L10.9,37.1z
			 M505.1,131l0.1-1L505.1,131z M25.8,89.6l-1,0.3L25.8,89.6z M545.4,26.5l-2-0.4l-18.8,88.2l2,0.4L545.4,26.5L545.4,26.5z
			 M505.3,129L42.7,103.2l-0.1,2L505.1,131L505.3,129z M25.8,89.6L10.9,37.1l-1.9,0.5l14.9,52.5L25.8,89.6z M28.6,11.3v2l496.2-9.8
			v-2L28.6,11.3L28.6,11.3z M543.4,26.1l2,0.4c2.8-13.1-7.3-25.3-20.7-25v2C536.8,3.3,546,14.3,543.4,26.1L543.4,26.1z M524.6,114.4
			c-1.9,9.1-10.1,15.3-19.3,14.8l-0.1,2c10.1,0.6,19.2-6.4,21.4-16.3L524.6,114.4z M42.7,103.2c-8-0.4-14.8-5.9-16.9-13.6l-1.9,0.5
			c2.4,8.6,9.8,14.6,18.7,15.1L42.7,103.2z M9.1,37.6l1.9-0.5c-3.3-11.8,5.4-23.6,17.6-23.8v-2C15,11.6,5.4,24.6,9.1,37.6L9.1,37.6z
			"/>
	</g>
</g>
</svg>
