<?xml version="1.0" encoding="utf-8"?>
<!-- Generator: Adobe Illustrator 19.2.1, SVG Export Plug-In . SVG Version: 6.00 Build 0)  -->
<svg version="1.1" id="Isolation_Mode" xmlns="http://www.w3.org/2000/svg" xmlns:xlink="http://www.w3.org/1999/xlink" x="0px"
	 y="0px" viewBox="0 0 450.2 459.9" style="enable-background:new 0 0 450.2 459.9;" xml:space="preserve">
<style type="text/css">
	.st0{fill:#EAEBEC;}
</style>
<path class="st0" d="M344.1,459.9H4.3c-2.4,0-4.3-1.9-4.3-4.3V115.8c0-2.4,1.9-4.3,4.3-4.3h339.8c2.4,0,4.3,1.9,4.3,4.3v339.8
	C348.4,458,346.5,459.9,344.1,459.9 M8.6,451.3h331.1V120.1H8.6V451.3z"/>
<path class="st0" d="M445.9,348.4H106.1c-2.4,0-4.3-1.9-4.3-4.3V4.3c0-2.4,1.9-4.3,4.3-4.3h339.8c2.4,0,4.3,1.9,4.3,4.3v339.8
	C450.2,346.5,448.3,348.4,445.9,348.4 M110.4,339.8h331.1V8.6H110.4V339.8z"/>
<path class="st0" d="M4.3,120.1c-1,0-2.1-0.4-2.9-1.1c-1.8-1.6-1.9-4.3-0.3-6.1L102.9,1.4c1.6-1.8,4.3-1.9,6.1-0.3
	c1.8,1.6,1.9,4.3,0.3,6.1L7.5,118.7C6.7,119.7,5.5,120.1,4.3,120.1"/>
<path class="st0" d="M344.1,120.1c-1,0-2.1-0.4-2.9-1.1c-1.8-1.6-1.9-4.3-0.3-6.1L442.7,1.4c1.6-1.8,4.4-1.9,6.1-0.3
	c1.8,1.6,1.9,4.3,0.3,6.1L347.3,118.7C346.4,119.7,345.3,120.1,344.1,120.1"/>
<path class="st0" d="M344.1,459.9c-1,0-2.1-0.4-2.9-1.1c-1.8-1.6-1.9-4.3-0.3-6.1l101.8-111.5c1.6-1.8,4.4-1.9,6.1-0.3
	c1.8,1.6,1.9,4.3,0.3,6.1L347.3,458.5C346.4,459.4,345.3,459.9,344.1,459.9"/>
<path class="st0" d="M4.3,459.9c-1,0-2.1-0.4-2.9-1.1c-1.8-1.6-1.9-4.3-0.3-6.1l101.8-111.5c1.6-1.8,4.3-1.9,6.1-0.3
	c1.8,1.6,1.9,4.3,0.3,6.1L7.5,458.5C6.7,459.4,5.5,459.9,4.3,459.9"/>
</svg>
