<?xml version="1.0" encoding="utf-8"?>
<!-- Generator: Adobe Illustrator 19.2.1, SVG Export Plug-In . SVG Version: 6.00 Build 0)  -->
<svg version="1.1" id="Layer_1" xmlns="http://www.w3.org/2000/svg" xmlns:xlink="http://www.w3.org/1999/xlink" x="0px" y="0px"
	 viewBox="0 0 349 699.4" style="enable-background:new 0 0 349 699.4;" xml:space="preserve">
<style type="text/css">
	.st0{clip-path:url(#SVGID_2_);fill:#237F9D;}
	.st1{clip-path:url(#SVGID_2_);fill:#F0D265;}
	.st2{clip-path:url(#SVGID_2_);fill:#E8744C;}
	.st3{clip-path:url(#SVGID_2_);fill:#525289;}
	.st4{clip-path:url(#SVGID_4_);fill:#237F9D;}
	.st5{clip-path:url(#SVGID_4_);fill:#F0D265;}
	.st6{clip-path:url(#SVGID_4_);fill:#E8744C;}
	.st7{clip-path:url(#SVGID_4_);fill:#525289;}
</style>
<g>
	<defs>
		
			<rect id="SVGID_1_" x="45" y="391.5" transform="matrix(-8.979122e-011 -1 1 -8.979122e-011 -304.4344 742.878)" width="348.4" height="264.3"/>
	</defs>
	<clipPath id="SVGID_2_">
		<use xlink:href="#SVGID_1_"  style="overflow:visible;"/>
	</clipPath>
	<path class="st0" d="M353.2,656.3L109.3,488.7l1.2-1.7l243.8,167.6L353.2,656.3z"/>
	<path class="st0" d="M348.2,661.2L109.3,497l1.2-1.7l238.9,164.2L348.2,661.2z"/>
	<path class="st0" d="M349,671.3L131.9,522.1l1.2-1.7l217.1,149.2L349,671.3z"/>
	<path class="st0" d="M349.4,680.9L108.8,515.5l1.2-1.7l240.6,165.4L349.4,680.9z"/>
	<path class="st0" d="M349.7,689.7L109.4,524.5l1.2-1.7l240.3,165.1L349.7,689.7z"/>
	<path class="st0" d="M351,699.4L109.2,533.2l1.1-1.6l241.8,166.2L351,699.4z"/>
	<path class="st0" d="M342.6,666.9L108.8,506.2l1.2-1.7l233.7,160.6L342.6,666.9z"/>
	<path class="st0" d="M353.2,363.6L109.3,531.2l1.2,1.7l243.8-167.6L353.2,363.6z"/>
	<path class="st0" d="M350.1,357.3L109.3,522.8l1.2,1.7l240.8-165.5L350.1,357.3z"/>
	<path class="st0" d="M349.4,338.9L108.8,504.3l1.2,1.7l240.6-165.4L349.4,338.9z"/>
	<path class="st0" d="M349.7,330.2L109.4,495.3l1.2,1.7l240.3-165.1L349.7,330.2z"/>
	<path class="st0" d="M351,320.5L109.2,486.7l1.1,1.6l241.8-166.2L351,320.5z"/>
	<path class="st0" d="M350.2,347.7L108.8,513.6l1.2,1.7l241.4-165.9L350.2,347.7z"/>
	<path class="st1" d="M493.8,362.6L250,530.2l1.2,1.7L495,364.3L493.8,362.6z"/>
	<path class="st1" d="M488.9,357.6L250,521.8l1.2,1.7L490,359.3L488.9,357.6z"/>
	<path class="st1" d="M490.1,337.9L249.4,503.3l1.2,1.7l240.6-165.4L490.1,337.9z"/>
	<path class="st1" d="M490.3,329.2L250,494.3l1.2,1.7l240.3-165.1L490.3,329.2z"/>
	<path class="st1" d="M491.6,319.5L249.8,485.7l1.1,1.6l241.8-166.2L491.6,319.5z"/>
	<path class="st1" d="M483.2,352L249.5,512.6l1.2,1.7l233.7-160.6L483.2,352z"/>
	<path class="st1" d="M493.8,654.8L250,487.2l1.2-1.7L495,653.1L493.8,654.8z"/>
	<path class="st1" d="M488.9,659.7L250,495.5l1.2-1.7L490,658L488.9,659.7z"/>
	<path class="st1" d="M490.1,679.4L249.4,514l1.2-1.7l240.6,165.4L490.1,679.4z"/>
	<path class="st1" d="M490.3,688.2L250,523l1.2-1.7l240.3,165.1L490.3,688.2z"/>
	<path class="st1" d="M491.6,697.9L249.8,531.7l1.1-1.6l241.8,166.2L491.6,697.9z"/>
	<path class="st1" d="M483.2,665.4L249.5,504.8l1.2-1.7l233.7,160.6L483.2,665.4z"/>
	<path class="st2" d="M353.2,486.8L109.3,319.2l1.2-1.7l243.8,167.6L353.2,486.8z"/>
	<path class="st2" d="M348.2,491.7L109.3,327.5l1.2-1.7L349.4,490L348.2,491.7z"/>
	<path class="st2" d="M349,501.8L131.9,352.6l1.2-1.7l217.1,149.2L349,501.8z"/>
	<path class="st2" d="M349.4,511.4L108.8,346l1.2-1.7l240.6,165.4L349.4,511.4z"/>
	<path class="st2" d="M349.7,520.2L101.3,349.5l1.2-1.7l248.4,170.7L349.7,520.2z"/>
	<path class="st2" d="M351,529.9L85.4,347.4l1.1-1.6l265.6,182.5L351,529.9z"/>
	<path class="st2" d="M342.6,497.4L108.8,336.8l1.2-1.7l233.7,160.6L342.6,497.4z"/>
	<path class="st3" d="M353.2,409.8L109.3,242.2l1.2-1.7l243.8,167.6L353.2,409.8z"/>
	<path class="st3" d="M348.2,414.7L109.3,250.5l1.2-1.7L349.4,413L348.2,414.7z"/>
	<path class="st3" d="M349.4,434.4L108.8,269l1.2-1.7l240.6,165.4L349.4,434.4z"/>
	<path class="st3" d="M349.7,443.2L101.3,272.5l1.2-1.7l248.4,170.7L349.7,443.2z"/>
	<path class="st3" d="M351,452.9L85.4,270.4l1.1-1.6l265.6,182.5L351,452.9z"/>
	<path class="st3" d="M348.7,424.6L108.8,259.8l1.2-1.7l239.9,164.8L348.7,424.6z"/>
</g>
<g>
	<defs>
		
			<rect id="SVGID_3_" x="45" y="43.1" transform="matrix(-1.795828e-010 1 -1 -1.795828e-010 394.4416 -44.002)" width="348.4" height="264.3"/>
	</defs>
	<clipPath id="SVGID_4_">
		<use xlink:href="#SVGID_3_"  style="overflow:visible;"/>
	</clipPath>
	<path class="st4" d="M353.2,42.6L109.3,210.2l1.2,1.7L354.4,44.3L353.2,42.6z"/>
	<path class="st4" d="M348.2,37.7L109.3,201.9l1.2,1.7L349.4,39.4L348.2,37.7z"/>
	<path class="st4" d="M349,27.6L131.9,176.8l1.2,1.7L350.2,29.3L349,27.6z"/>
	<path class="st4" d="M349.4,18L108.8,183.4l1.2,1.7L350.6,19.7L349.4,18z"/>
	<path class="st4" d="M349.7,9.2L109.4,174.4l1.2,1.7L350.9,10.9L349.7,9.2z"/>
	<path class="st4" d="M351-0.5L109.2,165.7l1.1,1.6L352.1,1.2L351-0.5z"/>
	<path class="st4" d="M342.6,32L108.8,192.6l1.2,1.7L343.7,33.7L342.6,32z"/>
	<path class="st4" d="M353.2,335.3L109.3,167.7l1.2-1.7l243.8,167.6L353.2,335.3z"/>
	<path class="st4" d="M350.1,341.5L109.3,176.1l1.2-1.7l240.8,165.5L350.1,341.5z"/>
	<path class="st4" d="M349.4,359.9L108.8,194.5l1.2-1.7l240.6,165.4L349.4,359.9z"/>
	<path class="st4" d="M349.7,368.7L109.4,203.6l1.2-1.7L350.9,367L349.7,368.7z"/>
	<path class="st4" d="M351,378.4L109.2,212.2l1.1-1.6l241.8,166.2L351,378.4z"/>
	<path class="st4" d="M350.2,351.2L108.8,185.3l1.2-1.7l241.4,165.9L350.2,351.2z"/>
	<path class="st5" d="M493.8,336.3L250,168.7l1.2-1.7L495,334.6L493.8,336.3z"/>
	<path class="st5" d="M488.9,341.3L250,177.1l1.2-1.7L490,339.5L488.9,341.3z"/>
	<path class="st5" d="M490.1,360.9L249.4,195.5l1.2-1.7l240.6,165.4L490.1,360.9z"/>
	<path class="st5" d="M490.3,369.7L250,204.6l1.2-1.7L491.5,368L490.3,369.7z"/>
	<path class="st5" d="M491.6,379.4L249.8,213.2l1.1-1.6l241.8,166.2L491.6,379.4z"/>
	<path class="st5" d="M483.2,346.9L249.5,186.3l1.2-1.7l233.7,160.6L483.2,346.9z"/>
	<path class="st5" d="M493.8,44.1L250,211.7l1.2,1.7L495,45.8L493.8,44.1z"/>
	<path class="st5" d="M488.9,39.1L250,203.3l1.2,1.7L490,40.9L488.9,39.1z"/>
	<path class="st5" d="M490.1,19.5L249.4,184.9l1.2,1.7L491.2,21.2L490.1,19.5z"/>
	<path class="st5" d="M490.3,10.7L250,175.8l1.2,1.7L491.5,12.4L490.3,10.7z"/>
	<path class="st5" d="M491.6,1L249.8,167.2l1.1,1.6L492.8,2.6L491.6,1z"/>
	<path class="st5" d="M483.2,33.5L249.5,194.1l1.2,1.7L484.4,35.2L483.2,33.5z"/>
	<path class="st6" d="M353.2,212.1L109.3,379.7l1.2,1.7l243.8-167.6L353.2,212.1z"/>
	<path class="st6" d="M348.2,207.1L109.3,371.3l1.2,1.7l238.9-164.2L348.2,207.1z"/>
	<path class="st6" d="M349,197L131.9,346.3l1.2,1.7l217.1-149.2L349,197z"/>
	<path class="st6" d="M349.4,187.5L108.8,352.9l1.2,1.7l240.6-165.4L349.4,187.5z"/>
	<path class="st6" d="M349.7,178.7L101.3,349.4l1.2,1.7l248.4-170.7L349.7,178.7z"/>
	<path class="st6" d="M351,169L85.4,351.5l1.1,1.6l265.6-182.5L351,169z"/>
	<path class="st6" d="M342.6,201.5L108.8,362.1l1.2,1.7l233.7-160.6L342.6,201.5z"/>
	<path class="st7" d="M353.2,289.1L109.3,456.7l1.2,1.7l243.8-167.6L353.2,289.1z"/>
	<path class="st7" d="M348.2,284.1L109.3,448.3l1.2,1.7l238.9-164.2L348.2,284.1z"/>
	<path class="st7" d="M349.4,264.5L108.8,429.9l1.2,1.7l240.6-165.4L349.4,264.5z"/>
	<path class="st7" d="M349.7,255.7L101.3,426.4l1.2,1.7l248.4-170.7L349.7,255.7z"/>
	<path class="st7" d="M351,246L85.4,428.5l1.1,1.6l265.6-182.5L351,246z"/>
	<path class="st7" d="M348.7,274.3L108.8,439.1l1.2,1.7L349.9,276L348.7,274.3z"/>
</g>
</svg>
