<?xml version="1.0" encoding="utf-8"?>
<!-- Generator: Adobe Illustrator 19.2.1, SVG Export Plug-In . SVG Version: 6.00 Build 0)  -->
<svg version="1.1" id="Layer_1" xmlns="http://www.w3.org/2000/svg" xmlns:xlink="http://www.w3.org/1999/xlink" x="0px" y="0px"
	 viewBox="0 0 349 699.4" style="enable-background:new 0 0 349 699.4;" xml:space="preserve">
<style type="text/css">
	.st0{clip-path:url(#SVGID_2_);fill:#237F9D;}
	.st1{clip-path:url(#SVGID_2_);fill:#F0D265;}
	.st2{clip-path:url(#SVGID_2_);fill:#E8744C;}
	.st3{clip-path:url(#SVGID_2_);fill:#525289;}
	.st4{clip-path:url(#SVGID_4_);fill:#237F9D;}
	.st5{clip-path:url(#SVGID_4_);fill:#F0D265;}
	.st6{clip-path:url(#SVGID_4_);fill:#E8744C;}
	.st7{clip-path:url(#SVGID_4_);fill:#525289;}
</style>
<g>
	<defs>
		
			<rect id="SVGID_1_" x="-45" y="391.5" transform="matrix(2.244792e-010 -1 1 2.244792e-010 -394.4344 652.878)" width="348.4" height="264.3"/>
	</defs>
	<clipPath id="SVGID_2_">
		<use xlink:href="#SVGID_1_"  style="overflow:visible;"/>
	</clipPath>
	<path class="st0" d="M-4.7,656.3l243.8-167.6l-1.2-1.7L-5.9,654.5L-4.7,656.3z"/>
	<path class="st0" d="M0.2,661.2L239.1,497l-1.2-1.7L-1,659.5L0.2,661.2z"/>
	<path class="st0" d="M-0.6,671.3l217.1-149.2l-1.2-1.7L-1.8,669.6L-0.6,671.3z"/>
	<path class="st0" d="M-1,680.9l240.6-165.4l-1.2-1.7L-2.2,679.2L-1,680.9z"/>
	<path class="st0" d="M-1.2,689.7L239,524.5l-1.2-1.7L-2.4,687.9L-1.2,689.7z"/>
	<path class="st0" d="M-2.6,699.4l241.8-166.2l-1.1-1.6L-3.7,697.7L-2.6,699.4z"/>
	<path class="st0" d="M5.9,666.9l233.7-160.6l-1.2-1.7L4.7,665.1L5.9,666.9z"/>
	<path class="st0" d="M-4.7,363.6l243.8,167.6l-1.2,1.7L-5.9,365.3L-4.7,363.6z"/>
	<path class="st0" d="M-1.6,357.3l240.8,165.5l-1.2,1.7L-2.8,359.1L-1.6,357.3z"/>
	<path class="st0" d="M-1,338.9l240.6,165.4l-1.2,1.7L-2.2,340.7L-1,338.9z"/>
	<path class="st0" d="M-1.2,330.2L239,495.3l-1.2,1.7L-2.4,331.9L-1.2,330.2z"/>
	<path class="st0" d="M-2.6,320.5l241.8,166.2l-1.1,1.6L-3.7,322.1L-2.6,320.5z"/>
	<path class="st0" d="M-1.8,347.7l241.4,165.9l-1.2,1.7L-2.9,349.4L-1.8,347.7z"/>
	<path class="st1" d="M-145.4,362.6L98.5,530.2l-1.2,1.7l-243.8-167.6L-145.4,362.6z"/>
	<path class="st1" d="M-140.4,357.6L98.5,521.8l-1.2,1.7l-238.9-164.2L-140.4,357.6z"/>
	<path class="st1" d="M-141.6,337.9L99,503.3l-1.2,1.7l-240.6-165.4L-141.6,337.9z"/>
	<path class="st1" d="M-141.9,329.2L98.4,494.3l-1.2,1.7l-240.3-165.1L-141.9,329.2z"/>
	<path class="st1" d="M-143.2,319.5L98.6,485.7l-1.1,1.6l-241.8-166.2L-143.2,319.5z"/>
	<path class="st1" d="M-134.8,352L99,512.6l-1.2,1.7l-233.7-160.6L-134.8,352z"/>
	<path class="st1" d="M-145.4,654.8L98.5,487.2l-1.2-1.7l-243.8,167.6L-145.4,654.8z"/>
	<path class="st1" d="M-140.4,659.7L98.5,495.5l-1.2-1.7L-141.6,658L-140.4,659.7z"/>
	<path class="st1" d="M-141.6,679.4L99,514l-1.2-1.7l-240.6,165.4L-141.6,679.4z"/>
	<path class="st1" d="M-141.9,688.2L98.4,523l-1.2-1.7l-240.3,165.1L-141.9,688.2z"/>
	<path class="st1" d="M-143.2,697.9L98.6,531.7l-1.1-1.6l-241.8,166.2L-143.2,697.9z"/>
	<path class="st1" d="M-134.8,665.4L99,504.8l-1.2-1.7l-233.7,160.6L-134.8,665.4z"/>
	<path class="st2" d="M-4.7,486.8l243.8-167.6l-1.2-1.7L-5.9,485.1L-4.7,486.8z"/>
	<path class="st2" d="M0.2,491.7l238.9-164.2l-1.2-1.7L-1,490L0.2,491.7z"/>
	<path class="st2" d="M-0.6,501.8l217.1-149.2l-1.2-1.7L-1.8,500.1L-0.6,501.8z"/>
	<path class="st2" d="M-1,511.4L239.7,346l-1.2-1.7L-2.2,509.7L-1,511.4z"/>
	<path class="st2" d="M-1.2,520.2l248.4-170.7l-1.2-1.7L-2.4,518.5L-1.2,520.2z"/>
	<path class="st2" d="M-2.6,529.9L263,347.4l-1.1-1.6L-3.7,528.2L-2.6,529.9z"/>
	<path class="st2" d="M5.9,497.4l233.7-160.6l-1.2-1.7L4.7,495.7L5.9,497.4z"/>
	<path class="st3" d="M-4.7,409.8l243.8-167.6l-1.2-1.7L-5.9,408.1L-4.7,409.8z"/>
	<path class="st3" d="M0.2,414.7l238.9-164.2l-1.2-1.7L-1,413L0.2,414.7z"/>
	<path class="st3" d="M-1,434.4L239.7,269l-1.2-1.7L-2.2,432.7L-1,434.4z"/>
	<path class="st3" d="M-1.2,443.2l248.4-170.7l-1.2-1.7L-2.4,441.5L-1.2,443.2z"/>
	<path class="st3" d="M-2.6,452.9L263,270.4l-1.1-1.6L-3.7,451.2L-2.6,452.9z"/>
	<path class="st3" d="M-0.2,424.6l239.9-164.8l-1.2-1.7L-1.4,422.9L-0.2,424.6z"/>
</g>
<g>
	<defs>
		
			<rect id="SVGID_3_" x="-45" y="43.1" transform="matrix(4.489013e-011 1 -1 4.489013e-011 304.4416 45.998)" width="348.4" height="264.3"/>
	</defs>
	<clipPath id="SVGID_4_">
		<use xlink:href="#SVGID_3_"  style="overflow:visible;"/>
	</clipPath>
	<path class="st4" d="M-4.7,42.6l243.8,167.6l-1.2,1.7L-5.9,44.3L-4.7,42.6z"/>
	<path class="st4" d="M0.2,37.7l238.9,164.2l-1.2,1.7L-1,39.4L0.2,37.7z"/>
	<path class="st4" d="M-0.6,27.6l217.1,149.2l-1.2,1.7L-1.8,29.3L-0.6,27.6z"/>
	<path class="st4" d="M-1,18l240.6,165.4l-1.2,1.7L-2.2,19.7L-1,18z"/>
	<path class="st4" d="M-1.2,9.2L239,174.4l-1.2,1.7L-2.4,10.9L-1.2,9.2z"/>
	<path class="st4" d="M-2.6-0.5l241.8,166.2l-1.1,1.6L-3.7,1.2L-2.6-0.5z"/>
	<path class="st4" d="M5.9,32l233.7,160.6l-1.2,1.7L4.7,33.7L5.9,32z"/>
	<path class="st4" d="M-4.7,335.3l243.8-167.6l-1.2-1.7L-5.9,333.6L-4.7,335.3z"/>
	<path class="st4" d="M-1.6,341.5l240.8-165.5l-1.2-1.7L-2.8,339.8L-1.6,341.5z"/>
	<path class="st4" d="M-1,359.9l240.6-165.4l-1.2-1.7L-2.2,358.2L-1,359.9z"/>
	<path class="st4" d="M-1.2,368.7L239,203.6l-1.2-1.7L-2.4,367L-1.2,368.7z"/>
	<path class="st4" d="M-2.6,378.4l241.8-166.2l-1.1-1.6L-3.7,376.8L-2.6,378.4z"/>
	<path class="st4" d="M-1.8,351.2l241.4-165.9l-1.2-1.7L-2.9,349.4L-1.8,351.2z"/>
	<path class="st5" d="M-145.4,336.3L98.5,168.7l-1.2-1.7l-243.8,167.6L-145.4,336.3z"/>
	<path class="st5" d="M-140.4,341.3L98.5,177.1l-1.2-1.7l-238.9,164.2L-140.4,341.3z"/>
	<path class="st5" d="M-141.6,360.9L99,195.5l-1.2-1.7l-240.6,165.4L-141.6,360.9z"/>
	<path class="st5" d="M-141.9,369.7L98.4,204.6l-1.2-1.7L-143.1,368L-141.9,369.7z"/>
	<path class="st5" d="M-143.2,379.4L98.6,213.2l-1.1-1.6l-241.8,166.2L-143.2,379.4z"/>
	<path class="st5" d="M-134.8,346.9L99,186.3l-1.2-1.7l-233.7,160.6L-134.8,346.9z"/>
	<path class="st5" d="M-145.4,44.1L98.5,211.7l-1.2,1.7L-146.5,45.8L-145.4,44.1z"/>
	<path class="st5" d="M-140.4,39.1L98.5,203.3l-1.2,1.7L-141.6,40.9L-140.4,39.1z"/>
	<path class="st5" d="M-141.6,19.5L99,184.9l-1.2,1.7L-142.8,21.2L-141.6,19.5z"/>
	<path class="st5" d="M-141.9,10.7L98.4,175.8l-1.2,1.7L-143.1,12.4L-141.9,10.7z"/>
	<path class="st5" d="M-143.2,1L98.6,167.2l-1.1,1.6L-144.3,2.6L-143.2,1z"/>
	<path class="st5" d="M-134.8,33.5L99,194.1l-1.2,1.7L-135.9,35.2L-134.8,33.5z"/>
	<path class="st6" d="M-4.7,212.1l243.8,167.6l-1.2,1.7L-5.9,213.8L-4.7,212.1z"/>
	<path class="st6" d="M0.2,207.1l238.9,164.2l-1.2,1.7L-1,208.9L0.2,207.1z"/>
	<path class="st6" d="M-0.6,197l217.1,149.2l-1.2,1.7L-1.8,198.8L-0.6,197z"/>
	<path class="st6" d="M-1,187.5l240.6,165.4l-1.2,1.7L-2.2,189.2L-1,187.5z"/>
	<path class="st6" d="M-1.2,178.7l248.4,170.7l-1.2,1.7L-2.4,180.4L-1.2,178.7z"/>
	<path class="st6" d="M-2.6,169L263,351.5l-1.1,1.6L-3.7,170.7L-2.6,169z"/>
	<path class="st6" d="M5.9,201.5l233.7,160.6l-1.2,1.7L4.7,203.2L5.9,201.5z"/>
	<path class="st7" d="M-4.7,289.1l243.8,167.6l-1.2,1.7L-5.9,290.8L-4.7,289.1z"/>
	<path class="st7" d="M0.2,284.1l238.9,164.2l-1.2,1.7L-1,285.9L0.2,284.1z"/>
	<path class="st7" d="M-1,264.5l240.6,165.4l-1.2,1.7L-2.2,266.2L-1,264.5z"/>
	<path class="st7" d="M-1.2,255.7l248.4,170.7l-1.2,1.7L-2.4,257.4L-1.2,255.7z"/>
	<path class="st7" d="M-2.6,246L263,428.5l-1.1,1.6L-3.7,247.7L-2.6,246z"/>
	<path class="st7" d="M-0.2,274.3l239.9,164.8l-1.2,1.7L-1.4,276L-0.2,274.3z"/>
</g>
</svg>
