<?xml version="1.0" encoding="utf-8"?>
<!-- Generator: Adobe Illustrator 19.2.1, SVG Export Plug-In . SVG Version: 6.00 Build 0)  -->
<svg version="1.1" id="Isolation_Mode" xmlns="http://www.w3.org/2000/svg" xmlns:xlink="http://www.w3.org/1999/xlink" x="0px"
	 y="0px" viewBox="0 0 288 319.1" style="enable-background:new 0 0 288 319.1;" xml:space="preserve">
<g>
	<path d="M240,0H48C21.5,0,0,21.5,0,48v192c0,26.5,21.5,48,48,48h48c6.6,0,12-5.4,12-12s-5.4-12-12-12H48c-13.2,0-24-10.8-24-24V48
		c0-13.2,10.8-24,24-24h192c13.2,0,24,10.8,24,24v192c0,13.2-10.8,24-24,24h-48c-6.6,0-12,5.4-12,12s5.4,12,12,12h48
		c26.5,0,48-21.5,48-48V48C288,21.5,266.5,0,240,0L240,0z M240,0"/>
	<path d="M144.8,319.1c5.4,0,9.8-4.4,9.8-9.8V121.4l47.4,47.4c1.9,1.9,4.4,2.9,7,2.9s5-1,7-2.9c3.8-3.8,3.8-10,0-13.8l-64.2-64.2
		c-3.8-3.8-10-3.8-13.8,0L73.7,155c-3.8,3.8-3.8,10,0,13.8c3.8,3.8,10,3.8,13.8,0l47.4-47.4v187.8
		C135,314.7,139.3,319.1,144.8,319.1L144.8,319.1z M144.8,319.1"/>
</g>
</svg>
